<svg width="16" height="16" viewBox="0 0 16 16" fill="none" xmlns="http://www.w3.org/2000/svg">
<g clip-path="url(#clip0_439_84)">
<path fill-rule="evenodd" clip-rule="evenodd" d="M7.49189 1.86594C7.08255 1.91994 6.57722 2.03594 5.85855 2.20194L5.03922 2.39128C4.43255 2.53128 4.01389 2.62861 3.69455 2.73794C3.38589 2.84394 3.21122 2.94794 3.07989 3.07994C2.94789 3.21128 2.84389 3.38594 2.73789 3.69461C2.62855 4.01394 2.53122 4.43194 2.39122 5.03928L2.20189 5.85794C2.03589 6.57727 1.91989 7.08261 1.86589 7.49194C1.81255 7.89061 1.82522 8.16061 1.89589 8.40594C1.96589 8.65128 2.09855 8.88661 2.35455 9.19661C2.61789 9.51528 2.98389 9.88261 3.50589 10.4046L4.72589 11.6246C5.63189 12.5306 6.27655 13.1739 6.83122 13.5966C7.37389 14.0113 7.77122 14.1666 8.17455 14.1666C8.57855 14.1666 8.97522 14.0113 9.51855 13.5966C10.0726 13.1739 10.7179 12.5299 11.6239 11.6239C12.5306 10.7173 13.1739 10.0726 13.5972 9.51861C14.0106 8.97528 14.1666 8.57861 14.1666 8.17461C14.1666 7.77128 14.0112 7.37461 13.5966 6.83127C13.1739 6.27661 12.5299 5.63128 11.6239 4.72528L10.4039 3.50528C9.88255 2.98394 9.51522 2.61794 9.19722 2.35461C8.88655 2.09861 8.65122 1.96594 8.40589 1.89594C8.16055 1.82528 7.89055 1.81328 7.49255 1.86594H7.49189ZM7.36122 0.874609C7.83922 0.811275 8.25855 0.813275 8.68122 0.934609C9.10455 1.05594 9.46122 1.27661 9.83322 1.58328C10.1932 1.88061 10.5932 2.28061 11.0939 2.78128L12.3579 4.04528C13.2312 4.91861 13.9232 5.61061 14.3912 6.22528C14.8739 6.85661 15.1666 7.46461 15.1666 8.17461C15.1666 8.88527 14.8739 9.49327 14.3919 10.1246C13.9232 10.7393 13.2319 11.4313 12.3579 12.3046L12.3046 12.3579C11.4312 13.2313 10.7392 13.9233 10.1246 14.3913C9.49322 14.8739 8.88455 15.1666 8.17455 15.1666C7.46455 15.1666 6.85655 14.8739 6.22455 14.3919C5.61055 13.9233 4.91855 13.2319 4.04455 12.3579L2.78189 11.0933C2.28189 10.5933 1.88122 10.1926 1.58389 9.83327C1.27722 9.46061 1.05655 9.10394 0.935219 8.68128C0.813886 8.25794 0.811886 7.83861 0.875219 7.36061C0.935886 6.89794 1.06389 6.34594 1.22255 5.65661L1.42255 4.78794C1.55589 4.21261 1.66389 3.74328 1.79255 3.36928C1.92722 2.97794 2.09589 2.64928 2.37322 2.37194C2.65055 2.09461 2.97989 1.92528 3.37055 1.79194C3.74455 1.66261 4.21389 1.55461 4.78922 1.42194L5.65789 1.22194C6.34722 1.06194 6.89922 0.935275 7.36189 0.873942L7.36122 0.874609ZM6.32655 5.32994C6.17025 5.17364 5.95826 5.08583 5.73722 5.08583C5.51618 5.08583 5.30419 5.17364 5.14789 5.32994C4.99158 5.48624 4.90378 5.69823 4.90378 5.91927C4.90378 6.14032 4.99158 6.35231 5.14789 6.50861C5.22528 6.586 5.31716 6.64739 5.41827 6.68928C5.51939 6.73116 5.62777 6.75272 5.73722 6.75272C5.84667 6.75272 5.95505 6.73116 6.05616 6.68928C6.15728 6.64739 6.24916 6.586 6.32655 6.50861C6.40394 6.43122 6.46534 6.33934 6.50722 6.23822C6.5491 6.1371 6.57066 6.02872 6.57066 5.91927C6.57066 5.80983 6.5491 5.70145 6.50722 5.60033C6.46534 5.49921 6.40394 5.40733 6.32655 5.32994ZM4.44055 4.62328C4.78436 4.27938 5.2507 4.08614 5.73698 4.08608C6.22327 4.08602 6.68965 4.27913 7.03355 4.62294C7.37745 4.96675 7.57068 5.43309 7.57075 5.91937C7.57081 6.40565 7.37769 6.87204 7.03389 7.21594C6.68999 7.55984 6.22356 7.75304 5.73722 7.75304C5.25087 7.75304 4.78445 7.55984 4.44055 7.21594C4.09666 6.87204 3.90346 6.40562 3.90346 5.91927C3.90346 5.43293 4.09665 4.96717 4.44055 4.62328ZM8.66055 8.07128C8.50642 8.07715 8.3608 8.14349 8.25522 8.25594C7.99655 8.51461 8.06455 8.77261 8.13722 8.84527C8.21055 8.91794 8.46855 8.98527 8.72655 8.72727C9.24922 8.20461 10.1519 8.03127 10.7299 8.60927C11.1786 9.05794 11.1752 9.70194 10.9066 10.2119C10.9726 10.308 11.0031 10.4242 10.9926 10.5404C10.982 10.6565 10.9313 10.7653 10.849 10.848C10.7667 10.9307 10.6581 10.982 10.542 10.993C10.4259 11.0041 10.3096 10.9742 10.2132 10.9086C9.91402 11.0726 9.56703 11.1273 9.23189 11.0633C9.16754 11.0501 9.10642 11.0243 9.05203 10.9875C8.99764 10.9506 8.95104 10.9034 8.91489 10.8486C8.87873 10.7937 8.85374 10.7323 8.84133 10.6678C8.82892 10.6033 8.82933 10.537 8.84255 10.4726C8.85577 10.4083 8.88154 10.3471 8.91838 10.2928C8.95521 10.2384 9.0024 10.1918 9.05725 10.1556C9.1121 10.1195 9.17353 10.0945 9.23804 10.0821C9.30255 10.0696 9.36887 10.0701 9.43322 10.0833C9.55122 10.1079 9.74189 10.0699 9.90522 9.90594C10.1632 9.64727 10.0959 9.38928 10.0232 9.31661C9.94989 9.24394 9.69189 9.17661 9.43389 9.43461C8.91122 9.95728 8.00855 10.1306 7.43055 9.55261C6.98189 9.10394 6.98522 8.45994 7.25389 7.94994C7.18779 7.85385 7.15737 7.73768 7.16788 7.62153C7.17839 7.50537 7.22918 7.39655 7.31145 7.31389C7.39372 7.23122 7.5023 7.17992 7.61839 7.16885C7.7345 7.15778 7.85081 7.18764 7.94722 7.25328C8.17389 7.13261 8.42255 7.06861 8.67055 7.07128C8.80316 7.07251 8.92985 7.12638 9.02274 7.22102C9.11563 7.31566 9.16712 7.44333 9.16589 7.57594C9.16465 7.70855 9.11078 7.83524 9.01614 7.92813C8.9215 8.02102 8.79316 8.07251 8.66055 8.07128Z" fill="#181210" fill-opacity="0.9"/>
</g>
<defs>
<clipPath id="clip0_439_84">
<rect width="16" height="16" fill="white"/>
</clipPath>
</defs>
</svg>
