<svg width="16" height="16" viewBox="0 0 16 16" fill="none" xmlns="http://www.w3.org/2000/svg">
<path d="M8 15C4.14 15 1 11.86 1 8C1 4.14 4.14 1 8 1C11.86 1 15 4.14 15 8C15 11.86 11.86 15 8 15ZM8 2C4.69 2 2 4.69 2 8C2 11.31 4.69 14 8 14C11.31 14 14 11.31 14 8C14 4.69 11.31 2 8 2Z" fill="#181210" fill-opacity="0.9"/>
<path d="M10 10.5C9.91003 10.5 9.82003 10.48 9.74003 10.43L7.24003 8.93C7.16598 8.8855 7.10487 8.8224 7.06277 8.74696C7.02066 8.67153 6.99904 8.58638 7.00003 8.5V4.5C7.00003 4.22 7.22003 4 7.50003 4C7.78003 4 8.00003 4.22 8.00003 4.5V8.22L10.26 9.57C10.3531 9.62705 10.4251 9.7129 10.465 9.81453C10.5049 9.91615 10.5106 10.028 10.4812 10.1332C10.4518 10.2383 10.3889 10.331 10.3021 10.3972C10.2152 10.4634 10.1092 10.4995 10 10.5Z" fill="#181210" fill-opacity="0.9"/>
</svg>
